# xmcd CD database file
#
# Track frame offsets:
#	150
#	25819
#	47096
#	68011
#	84931
#	109360
#	126388
#	152255
#	176172
#	193882
#	216932
#	241316
#	260663
#	283274
#	300918
#	319998
#	328893
#
# Disc length: 4647 seconds
#
# Revision: 10
# Processed by: cddbd v1.5.1PL0 Copyright (c) Steve Scherf et al.
# Submitted via: CDex 1.51
#
DISCID=fb122511
DTITLE=???? - MEDIUM SLOW
DYEAR=2000
DGENRE=J ???
TTITLE0=????????Baby Blues(1991??????????)
TTITLE1=????????
TTITLE2=Misty Mauve
TTITLE3=??????????(mediumslow version)
TTITLE4=??????
TTITLE5=????????(mediumslow version)
TTITLE6=?????
TTITLE7=10?
TTITLE8=??(mediumslow version)
TTITLE9=Still Live In My Heart
TTITLE10=????
TTITLE11=TAXI(mediumslow version)
TTITLE12=???????????
TTITLE13=T??????(mediumslow version)
TTITLE14=??????(solo version)
TTITLE15=????(a cappella version)
TTITLE16=????????
EXTD=YEAR: 2000
EXTT0=
EXTT1=
EXTT2=
EXTT3=
EXTT4=
EXTT5=
EXTT6=
EXTT7=
EXTT8=
EXTT9=
EXTT10=
EXTT11=
EXTT12=
EXTT13=
EXTT14=
EXTT15=
EXTT16=
PLAYORDER=
